<svg version="1.0" xmlns="http://www.w3.org/2000/svg">
    <symbol id="pause" viewBox="0 0 25 25" fill="currentColor">
        <path d="M9.989 0v25H1.625V0h8.364zM23.3 0v25h-8.364V0H23.3zM8.28 1.708H3.335v21.584H8.28V1.708zm13.31 0h-4.945v21.584h4.945V1.708z"/>    </symbol>

    <symbol id="play" viewBox="0 0 25 25" fill="currentColor">
        <path d="M2.5 0v25l21.235-12.5L2.5 0Zm1.706 2.984L20.372 12.5 4.206 22.016V2.984Z"/>
    </symbol>

    <symbol id="refresh" viewBox="0 0 25 25" fill="currentColor">
        <path d="M12.793 2.293a1 1 0 0 1 1.414 0l3 3a1 1 0 0 1 0 1.414l-3 3a1 1 0 0 1-1.414-1.414L14.086 7H12.5C8.952 7 6 9.952 6 13.5S8.952 20 12.5 20s6.5-2.952 6.5-6.5a1 1 0 1 1 2 0c0 4.652-3.848 8.5-8.5 8.5S4 18.152 4 13.5 7.848 5 12.5 5h1.586l-1.293-1.293a1 1 0 0 1 0-1.414z"/>
    </symbol>
</svg>