<svg version="1.0" xmlns="http://www.w3.org/2000/svg">
    <symbol id="pause" viewBox="0 0 25 25" fill="currentColor">
        <path d="M9.989 0v25H1.625V0h8.364zM23.3 0v25h-8.364V0H23.3zM8.28 1.708H3.335v21.584H8.28V1.708zm13.31 0h-4.945v21.584h4.945V1.708z"/>
    </symbol>

    <symbol id="play" viewBox="0 0 25 25" fill="currentColor">
        <path d="M2.5 0v25l21.235-12.5L2.5 0Zm1.706 2.984L20.372 12.5 4.206 22.016V2.984Z"/>
    </symbol>

    <symbol id="refresh" viewBox="0 0 25 25" fill="currentColor">
        <path d="M12.793 2.293a1 1 0 0 1 1.414 0l3 3a1 1 0 0 1 0 1.414l-3 3a1 1 0 0 1-1.414-1.414L14.086 7H12.5C8.952 7 6 9.952 6 13.5S8.952 20 12.5 20s6.5-2.952 6.5-6.5a1 1 0 1 1 2 0c0 4.652-3.848 8.5-8.5 8.5S4 18.152 4 13.5 7.848 5 12.5 5h1.586l-1.293-1.293a1 1 0 0 1 0-1.414z"/>
    </symbol>

    <symbol id="github" xmlns="http://www.w3.org/2000/svg" viewBox="0 0 24 24" fill="currentColor">
        <path d="M12 0C5.374 0 0 5.373 0 12c0 5.302 3.438 9.8 8.207 11.387.599.111.793-.261.793-.577v-2.234c-3.338.726-4.033-1.416-4.033-1.416-.546-1.387-1.333-1.756-1.333-1.756-1.089-.745.083-.729.083-.729 1.205.084 1.839 1.237 1.839 1.237 1.07 1.834 2.807 1.304 3.492.997.107-.775.418-1.305.762-1.604-2.665-.305-5.467-1.334-5.467-5.931 0-1.311.469-2.381 1.236-3.221-.124-.303-.535-1.524.117-3.176 0 0 1.008-.322 3.301 1.23A11.509 11.509 0 0 1 12 5.803c1.02.005 2.047.138 3.006.404 2.291-1.552 3.297-1.23 3.297-1.23.653 1.653.242 2.874.118 3.176.77.84 1.235 1.911 1.235 3.221 0 4.609-2.807 5.624-5.479 5.921.43.372.823 1.102.823 2.222v3.293c0 .319.192.694.801.576C20.566 21.797 24 17.3 24 12c0-6.627-5.373-12-12-12z"/>
    </symbol>

    <symbol id="examples" viewBox="0 0 14 14" fill="currentColor">
        <path fill-rule="evenodd" d="M9.4 4.3v-.9H4.6v7.2h4.8V4.3zm1.2.3h1.2v4.8h-1.2V4.6zm-7.2 0H2.2v4.8h1.2V4.6zm7.2 6v1.2H3.4v-1.2H1V3.4h2.4V2.2h7.2v1.2H13v7.2h-2.4z"/>
    </symbol>

    <symbol id="click" viewBox="0 0 36 36" fill="currentColor">
        <path d="M30.4 17.6c-1.8-1.9-4.2-3.2-6.7-3.7-1.1-.3-2.2-.5-3.3-.6 2.8-3.3 2.3-8.3-1-11.1s-8.3-2.3-11.1 1-2.3 8.3 1 11.1c.6.5 1.2.9 1.8 1.1v2.2l-1.6-1.5c-1.4-1.4-3.7-1.4-5.2 0-1.4 1.4-1.5 3.6-.1 5l4.6 5.4c.2 1.4.7 2.7 1.4 3.9.5.9 1.2 1.8 1.9 2.5v1.9c0 .6.4 1 1 1h13.6c.5 0 1-.5 1-1v-2.6c1.9-2.3 2.9-5.2 2.9-8.1v-5.8c.1-.4 0-.6-.2-.7zm-22-9.4c0-3.3 2.7-5.9 6-5.8 3.3 0 5.9 2.7 5.8 6 0 1.8-.8 3.4-2.2 4.5v-5a3.4 3.4 0 0 0-3.4-3.2c-1.8-.1-3.4 1.4-3.4 3.2v5.2c-1.7-1-2.7-2.9-2.8-4.9zM28.7 24c.1 2.6-.8 5.1-2.5 7.1-.2.2-.4.4-.4.7v2.1H14.2v-1.4c0-.3-.2-.6-.4-.8-.7-.6-1.3-1.3-1.8-2.2-.6-1-1-2.2-1.2-3.4 0-.2-.1-.4-.2-.6l-4.8-5.7c-.3-.3-.5-.7-.5-1.2 0-.4.2-.9.5-1.2.7-.6 1.7-.6 2.4 0l2.9 2.9v3l1.9-1V7.9c.1-.7.7-1.3 1.5-1.2.7 0 1.4.5 1.4 1.2v11.5l2 .4v-4.6c.1-.1.2-.1.3-.2.7 0 1.4.1 2.1.2v5.1l1.6.3v-5.2l1.2.3c.5.1 1 .3 1.5.5v5l1.6.3v-4.6c.9.4 1.7 1 2.4 1.7l.1 5.4z"/>
        <path fill="none" d="M0 0h36v36H0z"/>
    </symbol>
</svg>